<svg xmlns="http://www.w3.org/2000/svg" version="1.1" xmlns:xlink="http://www.w3.org/1999/xlink" width="1000" height="1000"><g clip-path="url(#SvgjsClipPath1003)"><rect width="1000" height="1000" fill="#ffffff"></rect><g transform="matrix(3.5,0,0,3.5,150,150)"><svg xmlns="http://www.w3.org/2000/svg" version="1.1" xmlns:xlink="http://www.w3.org/1999/xlink" width="200" height="200"><svg xmlns="http://www.w3.org/2000/svg" version="1.1" xmlns:xlink="http://www.w3.org/1999/xlink" viewBox="0 0 200 200"><rect width="200" height="200" fill="url('#gradient')"></rect><defs><linearGradient id="gradient" gradientTransform="rotate(45 0.5 0.5)"><stop offset="0%" stop-color="#ceff0b"></stop><stop offset="100%" stop-color="#2625a9"></stop></linearGradient><clipPath id="SvgjsClipPath1003"><rect width="1000" height="1000" x="0" y="0" rx="350" ry="350"></rect></clipPath></defs><g><g fill="#589f9c" transform="matrix(1.8042286609240408,0,0,1.8042286609240408,8.063498640303138,109.07456605772349)" stroke="#ffffff" stroke-width="0.2"><path d="M1.07-14.22L5.58-14.22L8.75-4.33L11.91-14.22L16.43-14.22L16.43 0L12.99 0L12.99-3.32L13.32-10.12L9.88 0L7.62 0L4.17-10.13L4.50-3.32L4.50 0L1.07 0L1.07-14.22ZM23.56 0.20L23.56 0.20Q21.13 0.20 19.63-1.25Q18.13-2.71 18.13-5.03L18.13-5.03L18.13-5.30Q18.13-6.92 18.73-8.16Q19.33-9.40 20.48-10.08Q21.63-10.76 23.21-10.76L23.21-10.76Q25.44-10.76 26.73-9.38Q28.02-8.00 28.02-5.53L28.02-5.53L28.02-4.25L21.47-4.25Q21.65-3.36 22.25-2.85Q22.84-2.34 23.79-2.34L23.79-2.34Q25.35-2.34 26.23-3.44L26.23-3.44L27.73-1.66Q27.12-0.81 25.99-0.31Q24.86 0.20 23.56 0.20ZM23.19-8.22L23.19-8.22Q21.75-8.22 21.47-6.31L21.47-6.31L24.79-6.31L24.79-6.56Q24.81-7.35 24.39-7.79Q23.97-8.22 23.19-8.22ZM34.87-2.97L34.87-2.97Q34.87-3.39 34.43-3.64Q33.99-3.90 32.76-4.17Q31.53-4.44 30.73-4.89Q29.93-5.33 29.51-5.97Q29.09-6.60 29.09-7.42L29.09-7.42Q29.09-8.88 30.29-9.82Q31.49-10.76 33.44-10.76L33.44-10.76Q35.53-10.76 36.80-9.81Q38.07-8.87 38.07-7.32L38.07-7.32L34.77-7.32Q34.77-8.59 33.43-8.59L33.43-8.59Q32.91-8.59 32.56-8.31Q32.21-8.02 32.21-7.59L32.21-7.59Q32.21-7.15 32.64-6.88Q33.07-6.60 34.01-6.43Q34.95-6.25 35.66-6.01L35.66-6.01Q38.05-5.19 38.05-3.07L38.05-3.07Q38.05-1.62 36.76-0.71Q35.48 0.20 33.44 0.20L33.44 0.20Q32.08 0.20 31.02-0.29Q29.95-0.78 29.36-1.62Q28.76-2.46 28.76-3.39L28.76-3.39L31.84-3.39Q31.86-2.66 32.32-2.32Q32.79-1.98 33.53-1.98L33.53-1.98Q34.20-1.98 34.54-2.26Q34.87-2.53 34.87-2.97ZM45.12-2.97L45.12-2.97Q45.12-3.39 44.68-3.64Q44.24-3.90 43.01-4.17Q41.78-4.44 40.98-4.89Q40.18-5.33 39.76-5.97Q39.34-6.60 39.34-7.42L39.34-7.42Q39.34-8.88 40.54-9.82Q41.74-10.76 43.68-10.76L43.68-10.76Q45.77-10.76 47.04-9.81Q48.31-8.87 48.31-7.32L48.31-7.32L45.01-7.32Q45.01-8.59 43.67-8.59L43.67-8.59Q43.15-8.59 42.80-8.31Q42.45-8.02 42.45-7.59L42.45-7.59Q42.45-7.15 42.88-6.88Q43.31-6.60 44.25-6.43Q45.20-6.25 45.91-6.01L45.91-6.01Q48.29-5.19 48.29-3.07L48.29-3.07Q48.29-1.62 47.01-0.71Q45.72 0.20 43.68 0.20L43.68 0.20Q42.32 0.20 41.26-0.29Q40.20-0.78 39.60-1.62Q39.00-2.46 39.00-3.39L39.00-3.39L42.08-3.39Q42.10-2.66 42.57-2.32Q43.04-1.98 43.77-1.98L43.77-1.98Q44.44-1.98 44.78-2.26Q45.12-2.53 45.12-2.97ZM54.94 0.20L54.94 0.20Q52.51 0.20 51.01-1.25Q49.50-2.71 49.50-5.03L49.50-5.03L49.50-5.30Q49.50-6.92 50.10-8.16Q50.70-9.40 51.86-10.08Q53.01-10.76 54.59-10.76L54.59-10.76Q56.82-10.76 58.11-9.38Q59.39-8.00 59.39-5.53L59.39-5.53L59.39-4.25L52.85-4.25Q53.03-3.36 53.62-2.85Q54.22-2.34 55.17-2.34L55.17-2.34Q56.73-2.34 57.61-3.44L57.61-3.44L59.11-1.66Q58.50-0.81 57.37-0.31Q56.24 0.20 54.94 0.20ZM54.57-8.22L54.57-8.22Q53.13-8.22 52.85-6.31L52.85-6.31L56.17-6.31L56.17-6.56Q56.19-7.35 55.77-7.79Q55.35-8.22 54.57-8.22ZM60.65-10.57L63.74-10.57L63.85-9.33Q64.94-10.76 66.87-10.76L66.87-10.76Q68.52-10.76 69.33-9.78Q70.15-8.79 70.18-6.81L70.18-6.81L70.18 0L66.88 0L66.88-6.67Q66.88-7.47 66.55-7.85Q66.23-8.22 65.38-8.22L65.38-8.22Q64.41-8.22 63.95-7.46L63.95-7.46L63.95 0L60.65 0L60.65-10.57ZM71.61-5.24L71.61-5.36Q71.61-6.96 72.14-8.19Q72.67-9.42 73.65-10.09Q74.64-10.76 75.95-10.76L75.95-10.76Q77.60-10.76 78.53-9.65L78.53-9.65L78.64-10.57L81.63-10.57L81.63-0.40Q81.63 1.00 80.98 2.03Q80.33 3.06 79.10 3.61Q77.87 4.16 76.25 4.16L76.25 4.16Q75.09 4.16 74.00 3.72Q72.91 3.28 72.33 2.58L72.33 2.58L73.71 0.64Q74.63 1.73 76.13 1.73L76.13 1.73Q78.32 1.73 78.32-0.52L78.32-0.52L78.32-0.85Q77.37 0.20 75.93 0.20L75.93 0.20Q73.99 0.20 72.80-1.28Q71.61-2.76 71.61-5.24L71.61-5.24ZM74.91-5.16L74.91-5.16Q74.91-3.86 75.40-3.10Q75.89-2.34 76.77-2.34L76.77-2.34Q77.83-2.34 78.32-3.06L78.32-3.06L78.32-7.50Q77.84-8.22 76.79-8.22L76.79-8.22Q75.91-8.22 75.41-7.44Q74.91-6.65 74.91-5.16ZM88.61 0.20L88.61 0.20Q86.18 0.20 84.68-1.25Q83.17-2.71 83.17-5.03L83.17-5.03L83.17-5.30Q83.17-6.92 83.77-8.16Q84.38-9.40 85.53-10.08Q86.68-10.76 88.26-10.76L88.26-10.76Q90.49-10.76 91.78-9.38Q93.07-8.00 93.07-5.53L93.07-5.53L93.07-4.25L86.52-4.25Q86.70-3.36 87.29-2.85Q87.89-2.34 88.84-2.34L88.84-2.34Q90.40-2.34 91.28-3.44L91.28-3.44L92.78-1.66Q92.17-0.81 91.04-0.31Q89.91 0.20 88.61 0.20ZM88.24-8.22L88.24-8.22Q86.80-8.22 86.52-6.31L86.52-6.31L89.84-6.31L89.84-6.56Q89.86-7.35 89.44-7.79Q89.02-8.22 88.24-8.22ZM100.84-10.64L100.78-7.59L99.70-7.67Q98.14-7.67 97.71-6.69L97.71-6.69L97.71 0L94.41 0L94.41-10.57L97.50-10.57L97.61-9.21Q98.44-10.76 99.92-10.76L99.92-10.76Q100.45-10.76 100.84-10.64L100.84-10.64Z"></path></g></g></svg></svg></g></g></svg>